<mxfile host="app.diagrams.net" modified="2021-10-10T07:22:05.156Z" agent="5.0 (Windows)" etag="NpY49MfNwjXYB992kXeM" version="15.5.0" type="github">
  <diagram id="R2lEEEUBdFMjLlhIrx00" name="Page-1">
    <mxGraphModel dx="1333" dy="923" grid="1" gridSize="10" guides="1" tooltips="1" connect="1" arrows="1" fold="1" page="1" pageScale="1" pageWidth="850" pageHeight="1100" math="0" shadow="0" extFonts="Permanent Marker^https://fonts.googleapis.com/css?family=Permanent+Marker">
      <root>
        <mxCell id="0" />
        <mxCell id="1" parent="0" />
        <mxCell id="oBOZgDLwv16d5uzjFYr--12" style="edgeStyle=orthogonalEdgeStyle;rounded=0;orthogonalLoop=1;jettySize=auto;html=1;entryX=0;entryY=0.5;entryDx=0;entryDy=0;" edge="1" parent="1" source="oBOZgDLwv16d5uzjFYr--1" target="oBOZgDLwv16d5uzjFYr--3">
          <mxGeometry relative="1" as="geometry" />
        </mxCell>
        <mxCell id="oBOZgDLwv16d5uzjFYr--1" value="WaterLevelMonitoringUnit" style="html=1;" vertex="1" parent="1">
          <mxGeometry x="40" y="120" width="160" height="80" as="geometry" />
        </mxCell>
        <mxCell id="oBOZgDLwv16d5uzjFYr--15" style="edgeStyle=orthogonalEdgeStyle;rounded=0;orthogonalLoop=1;jettySize=auto;html=1;entryX=0.5;entryY=0;entryDx=0;entryDy=0;" edge="1" parent="1" source="oBOZgDLwv16d5uzjFYr--3" target="oBOZgDLwv16d5uzjFYr--6">
          <mxGeometry relative="1" as="geometry" />
        </mxCell>
        <mxCell id="oBOZgDLwv16d5uzjFYr--3" value="MainControllerUnit" style="html=1;" vertex="1" parent="1">
          <mxGeometry x="320" y="220" width="160" height="80" as="geometry" />
        </mxCell>
        <mxCell id="oBOZgDLwv16d5uzjFYr--13" style="edgeStyle=orthogonalEdgeStyle;rounded=0;orthogonalLoop=1;jettySize=auto;html=1;" edge="1" parent="1" source="oBOZgDLwv16d5uzjFYr--4">
          <mxGeometry relative="1" as="geometry">
            <mxPoint x="320" y="260" as="targetPoint" />
          </mxGeometry>
        </mxCell>
        <mxCell id="oBOZgDLwv16d5uzjFYr--4" value="WaterLevelMonitoringUnit" style="html=1;" vertex="1" parent="1">
          <mxGeometry x="40" y="220" width="160" height="80" as="geometry" />
        </mxCell>
        <mxCell id="oBOZgDLwv16d5uzjFYr--14" style="edgeStyle=orthogonalEdgeStyle;rounded=0;orthogonalLoop=1;jettySize=auto;html=1;entryX=0;entryY=0.5;entryDx=0;entryDy=0;" edge="1" parent="1" source="oBOZgDLwv16d5uzjFYr--5" target="oBOZgDLwv16d5uzjFYr--3">
          <mxGeometry relative="1" as="geometry" />
        </mxCell>
        <mxCell id="oBOZgDLwv16d5uzjFYr--5" value="WaterLevelMonitoringUnit" style="html=1;" vertex="1" parent="1">
          <mxGeometry x="40" y="320" width="160" height="80" as="geometry" />
        </mxCell>
        <mxCell id="oBOZgDLwv16d5uzjFYr--6" value="CloudServices" style="html=1;" vertex="1" parent="1">
          <mxGeometry x="320" y="400" width="160" height="80" as="geometry" />
        </mxCell>
        <mxCell id="oBOZgDLwv16d5uzjFYr--19" style="edgeStyle=orthogonalEdgeStyle;rounded=0;orthogonalLoop=1;jettySize=auto;html=1;exitX=0.5;exitY=0;exitDx=0;exitDy=0;" edge="1" parent="1" source="oBOZgDLwv16d5uzjFYr--8">
          <mxGeometry relative="1" as="geometry">
            <mxPoint x="400" y="480" as="targetPoint" />
          </mxGeometry>
        </mxCell>
        <mxCell id="oBOZgDLwv16d5uzjFYr--8" value="WebApplication" style="html=1;" vertex="1" parent="1">
          <mxGeometry x="200" y="560" width="160" height="80" as="geometry" />
        </mxCell>
        <mxCell id="oBOZgDLwv16d5uzjFYr--17" style="edgeStyle=orthogonalEdgeStyle;rounded=0;orthogonalLoop=1;jettySize=auto;html=1;entryX=0.5;entryY=1;entryDx=0;entryDy=0;" edge="1" parent="1" source="oBOZgDLwv16d5uzjFYr--9" target="oBOZgDLwv16d5uzjFYr--6">
          <mxGeometry relative="1" as="geometry" />
        </mxCell>
        <mxCell id="oBOZgDLwv16d5uzjFYr--9" value="MobileApplication" style="html=1;" vertex="1" parent="1">
          <mxGeometry x="440" y="560" width="160" height="80" as="geometry" />
        </mxCell>
        <mxCell id="oBOZgDLwv16d5uzjFYr--24" style="edgeStyle=orthogonalEdgeStyle;rounded=0;orthogonalLoop=1;jettySize=auto;html=1;exitX=0;exitY=0.5;exitDx=0;exitDy=0;entryX=1;entryY=0.5;entryDx=0;entryDy=0;" edge="1" parent="1" source="oBOZgDLwv16d5uzjFYr--20" target="oBOZgDLwv16d5uzjFYr--3">
          <mxGeometry relative="1" as="geometry" />
        </mxCell>
        <mxCell id="oBOZgDLwv16d5uzjFYr--20" value="WaterPumpMonitoringUnit" style="html=1;" vertex="1" parent="1">
          <mxGeometry x="600" y="120" width="160" height="80" as="geometry" />
        </mxCell>
        <mxCell id="oBOZgDLwv16d5uzjFYr--25" style="edgeStyle=orthogonalEdgeStyle;rounded=0;orthogonalLoop=1;jettySize=auto;html=1;exitX=0;exitY=0.5;exitDx=0;exitDy=0;" edge="1" parent="1" source="oBOZgDLwv16d5uzjFYr--21">
          <mxGeometry relative="1" as="geometry">
            <mxPoint x="480" y="260" as="targetPoint" />
          </mxGeometry>
        </mxCell>
        <mxCell id="oBOZgDLwv16d5uzjFYr--21" value="WaterPumpMonitoringUnit" style="html=1;" vertex="1" parent="1">
          <mxGeometry x="600" y="220" width="160" height="80" as="geometry" />
        </mxCell>
        <mxCell id="oBOZgDLwv16d5uzjFYr--26" style="edgeStyle=orthogonalEdgeStyle;rounded=0;orthogonalLoop=1;jettySize=auto;html=1;entryX=1;entryY=0.5;entryDx=0;entryDy=0;" edge="1" parent="1" source="oBOZgDLwv16d5uzjFYr--22" target="oBOZgDLwv16d5uzjFYr--3">
          <mxGeometry relative="1" as="geometry" />
        </mxCell>
        <mxCell id="oBOZgDLwv16d5uzjFYr--22" value="WaterPumpMonitoringUnit" style="html=1;" vertex="1" parent="1">
          <mxGeometry x="600" y="320" width="160" height="80" as="geometry" />
        </mxCell>
      </root>
    </mxGraphModel>
  </diagram>
</mxfile>
